<?xml version="1.0" standalone="no"?>
<!DOCTYPE svg PUBLIC "-//W3C//DTD SVG 20010904//EN"
 "http://www.w3.org/TR/2001/REC-SVG-20010904/DTD/svg10.dtd">
<svg version="1.0" xmlns="http://www.w3.org/2000/svg"
 width="273.000000pt" height="185.000000pt" viewBox="0 0 273.000000 185.000000"
 preserveAspectRatio="xMidYMid meet">

<g transform="translate(0.000000,185.000000) scale(0.100000,-0.100000)"
fill="#000000" stroke="none">
<path d="M1844 1705 c-4 -8 -16 -15 -29 -15 -12 0 -28 -7 -35 -15 -7 -8 -18
-15 -25 -15 -32 0 -108 -57 -98 -73 4 -7 -1 -8 -13 -3 -10 4 -15 4 -11 0 4 -4
2 -13 -3 -19 -6 -8 -7 -22 -2 -35 l9 -23 25 27 c33 37 122 48 153 20 11 -11
21 -26 23 -34 2 -8 8 -18 14 -21 6 -4 7 -16 3 -28 -4 -14 0 -30 14 -47 12 -15
21 -34 21 -43 1 -15 2 -15 13 0 7 9 23 19 37 22 21 5 29 1 43 -21 l16 -27 -4
48 c-3 29 -1 47 6 47 5 0 8 -4 4 -9 -3 -5 2 -17 12 -26 16 -16 15 -20 -5 -59
-19 -35 -20 -47 -11 -78 5 -21 12 -38 13 -38 8 0 47 84 67 142 15 41 19 70 14
95 -4 22 -3 33 4 29 10 -7 -17 71 -32 91 -5 7 -13 10 -18 7 -5 -3 -9 1 -9 8 0
25 -72 83 -104 84 -17 1 -44 2 -59 3 -16 0 -26 5 -22 11 3 6 4 10 0 10 -3 0
-8 -7 -11 -15z"/>
<path d="M1711 1461 c-7 -5 -9 -11 -4 -14 4 -3 17 1 28 9 21 16 0 20 -24 5z"/>
<path d="M692 1433 c-10 -16 -18 -17 -120 -12 -35 2 -47 -2 -68 -24 -26 -29
-32 -52 -10 -44 20 8 116 -84 116 -111 0 -32 19 -37 45 -12 13 12 28 19 34 15
14 -8 14 -48 0 -62 -29 -29 -1 -123 37 -123 9 0 6 -15 -10 -52 -13 -29 -27
-69 -30 -88 l-6 -35 19 31 c11 18 30 39 43 48 12 9 23 24 23 33 0 13 43 46 62
48 1 0 -4 21 -12 45 -7 25 -18 79 -24 120 -27 189 -34 210 -72 231 -13 7 -20
5 -27 -8z"/>
<path d="M1724 1425 c-9 -22 2 -30 21 -15 8 7 22 9 31 6 10 -4 14 -1 12 6 -7
20 -57 22 -64 3z"/>
<path d="M1645 1411 c-6 -11 9 -23 19 -14 9 9 7 23 -3 23 -6 0 -12 -4 -16 -9z"/>
<path d="M1673 1313 c14 -4 16 -8 6 -19 -9 -12 -5 -14 25 -14 20 0 36 3 36 8
0 10 -50 32 -69 31 -12 -1 -11 -3 2 -6z"/>
<path d="M1718 1313 c7 -3 16 -2 19 1 4 3 -2 6 -13 5 -11 0 -14 -3 -6 -6z"/>
<path d="M1902 1290 c0 -14 2 -19 5 -12 2 6 2 18 0 25 -3 6 -5 1 -5 -13z"/>
<path d="M1710 1270 l-35 -7 43 -2 c23 0 42 4 42 9 0 6 -3 9 -7 9 -5 -1 -24
-5 -43 -9z"/>
<path d="M1911 1261 c-8 -11 -18 -18 -23 -15 -4 3 -8 0 -8 -5 0 -6 -8 -11 -17
-11 -10 0 -30 -6 -45 -14 -22 -11 -30 -12 -44 -2 -14 11 -20 10 -36 -6 -10
-10 -18 -22 -18 -28 0 -5 -4 -10 -10 -10 -5 0 -10 -4 -10 -10 0 -5 13 -10 29
-10 16 0 34 -7 41 -15 18 -22 46 -18 72 8 47 47 89 107 86 122 -2 13 -5 13
-17 -4z"/>
<path d="M490 1260 c-8 -5 -10 -10 -5 -10 6 0 17 5 25 10 8 5 11 10 5 10 -5 0
-17 -5 -25 -10z"/>
<path d="M490 1231 c0 -5 11 -8 25 -7 33 1 33 16 0 16 -14 0 -25 -4 -25 -9z"/>
<path d="M1690 1220 c0 -5 5 -10 11 -10 5 0 7 5 4 10 -3 6 -8 10 -11 10 -2 0
-4 -4 -4 -10z"/>
<path d="M1332 1200 c7 -10 14 -18 15 -16 6 6 -9 36 -18 36 -5 0 -4 -9 3 -20z"/>
<path d="M1350 1161 c0 -6 4 -13 10 -16 6 -3 7 1 4 9 -7 18 -14 21 -14 7z"/>
<path d="M2010 1155 c-11 -13 -11 -21 -2 -36 7 -10 8 -19 3 -19 -16 0 -43 -62
-31 -74 7 -7 10 -5 10 7 0 9 5 17 11 17 11 0 35 52 41 89 4 29 -14 38 -32 16z
m20 -36 c0 -6 -4 -7 -10 -4 -5 3 -10 11 -10 16 0 6 5 7 10 4 6 -3 10 -11 10
-16z m-17 -44 c-3 -9 -8 -14 -10 -11 -3 3 -2 9 2 15 9 16 15 13 8 -4z"/>
<path d="M1430 1150 c0 -5 5 -10 11 -10 5 0 7 5 4 10 -3 6 -8 10 -11 10 -2 0
-4 -4 -4 -10z"/>
<path d="M2155 1150 c-3 -5 -13 -10 -21 -10 -9 0 -24 -10 -35 -22 -10 -13 -18
-18 -19 -11 0 6 5 15 10 18 14 9 12 25 -3 25 -8 0 -13 -11 -12 -27 0 -19 -10
-38 -30 -58 -28 -28 -86 -139 -101 -194 -6 -23 -5 -23 16 -8 14 10 25 29 27
47 3 36 70 155 102 184 15 14 35 19 64 19 35 -1 38 0 17 7 -14 4 -20 8 -14 9
6 1 11 8 11 16 0 18 -3 19 -12 5z"/>
<path d="M1393 1144 c-7 -3 -9 -12 -6 -20 8 -21 19 -17 19 6 0 11 0 20 -1 19
0 0 -5 -3 -12 -5z"/>
<path d="M478 1123 c7 -3 16 -2 19 1 4 3 -2 6 -13 5 -11 0 -14 -3 -6 -6z"/>
<path d="M1794 1060 c10 -50 29 -204 29 -227 0 -18 3 -21 10 -14 8 8 8 28 -1
69 -18 88 -15 104 10 60 34 -58 80 -46 64 17 -5 20 -11 24 -29 19 -26 -6 -38
5 -67 62 -15 29 -19 32 -16 14z"/>
<path d="M1704 1056 c-3 -8 0 -33 6 -56 10 -36 13 -40 26 -29 10 8 14 22 10
39 -3 15 0 33 7 41 10 11 9 11 -5 0 -15 -11 -18 -11 -18 3 0 20 -19 21 -26 2z"/>
<path d="M1397 1033 l-38 -26 31 -32 c36 -38 20 -57 -17 -22 -21 19 -23 19
-23 3 0 -14 -6 -16 -32 -11 l-33 6 31 -15 c18 -8 35 -19 38 -25 4 -6 16 -16
28 -22 17 -9 19 -8 14 9 -5 16 2 25 37 45 64 38 72 50 52 81 -10 14 -21 23
-26 20 -5 -3 -9 0 -9 5 0 16 -11 13 -53 -16z"/>
<path d="M1776 1000 c4 -14 11 -43 15 -65 7 -34 8 -32 4 14 -3 30 -10 59 -16
65 -8 8 -9 5 -3 -14z"/>
<path d="M1946 1005 c-9 -26 -7 -32 5 -12 6 10 9 21 6 23 -2 3 -7 -2 -11 -11z"/>
<path d="M770 1000 c0 -5 10 -10 23 -10 18 0 19 2 7 10 -19 13 -30 13 -30 0z"/>
<path d="M2055 1000 c-3 -5 -1 -10 4 -10 6 0 11 5 11 10 0 6 -2 10 -4 10 -3 0
-8 -4 -11 -10z"/>
<path d="M1650 980 c0 -11 4 -20 9 -20 5 0 7 9 4 20 -3 11 -7 20 -9 20 -2 0
-4 -9 -4 -20z"/>
<path d="M1966 985 c-9 -26 -7 -32 5 -12 6 10 9 21 6 23 -2 3 -7 -2 -11 -11z"/>
<path d="M572 944 c-25 -51 -29 -129 -8 -157 12 -16 14 -16 27 -1 14 17 22
191 9 199 -4 2 -16 -16 -28 -41z"/>
<path d="M1667 909 c4 -13 8 -18 11 -10 2 7 -1 18 -6 23 -8 8 -9 4 -5 -13z"/>
<path d="M964 861 c-2 -46 -18 -72 -65 -107 -33 -24 -89 -33 -89 -14 0 19 -16
9 -85 -55 -39 -36 -76 -65 -82 -65 -7 0 -13 -4 -13 -9 0 -10 54 -31 81 -31 10
0 33 -9 51 -20 35 -21 107 -27 137 -11 13 7 18 6 18 -5 0 -8 -11 -15 -26 -15
-14 -1 -33 -2 -41 -3 -66 -5 -335 -129 -376 -173 -13 -14 -24 -38 -24 -53 0
-26 73 -177 127 -263 23 -37 24 -37 88 -37 36 0 65 3 65 8 -1 32 -33 148 -50
181 -11 23 -18 46 -15 51 7 11 71 30 103 30 18 0 22 -6 22 -29 0 -16 16 -60
36 -98 20 -37 45 -85 56 -106 l18 -37 95 0 c60 0 95 4 95 10 0 17 -30 71 -68
123 -19 27 -31 52 -26 57 5 4 44 15 87 23 129 26 217 89 267 193 11 22 20 50
20 62 0 20 -5 22 -56 22 -53 0 -56 1 -69 33 -8 19 -17 57 -21 85 -6 48 -9 52
-43 64 -40 13 -62 12 -74 -5 -8 -13 -20 -1 -49 53 l-18 31 -31 -36 c-17 -20
-33 -34 -35 -32 -2 2 6 26 18 55 19 44 20 56 10 89 -6 21 -17 46 -24 56 -11
15 -13 12 -14 -22z m78 -233 c-18 -18 -15 -31 5 -24 10 4 14 4 9 -1 -4 -4 -23
-8 -41 -8 l-34 0 27 22 c28 23 55 32 34 11z m-82 -53 c-7 -8 -17 -15 -23 -15
-6 0 -2 7 9 15 25 19 30 19 14 0z"/>
<path d="M1760 877 c0 -14 5 -29 10 -32 7 -4 8 3 4 22 -9 38 -14 42 -14 10z"/>
<path d="M1910 875 c0 -8 -4 -15 -10 -15 -5 0 -10 -9 -10 -19 0 -11 -4 -21
-10 -23 -6 -2 -6 -9 0 -18 6 -10 12 -11 18 -5 10 11 25 95 17 95 -3 0 -5 -7
-5 -15z"/>
<path d="M1368 843 c5 -59 10 -63 11 -10 1 26 -3 47 -7 47 -4 0 -6 -17 -4 -37z"/>
<path d="M486 842 c9 -22 9 -52 0 -79 -5 -14 -3 -23 3 -23 6 0 11 4 11 10 0 5
10 18 22 29 18 17 20 25 11 44 -13 29 -59 46 -47 19z"/>
<path d="M2260 760 c-16 -29 0 -45 26 -26 18 14 18 16 2 32 -15 15 -17 15 -28
-6z"/>
<path d="M1376 761 c-4 -5 -2 -12 3 -15 11 -7 23 -65 26 -126 2 -31 -2 -51
-14 -64 -15 -17 -15 -18 4 -15 17 4 21 15 26 70 3 35 8 70 12 76 4 7 1 15 -7
20 -8 4 -21 21 -29 36 -8 16 -18 24 -21 18z"/>
<path d="M280 751 c0 -6 4 -13 10 -16 6 -3 7 1 4 9 -7 18 -14 21 -14 7z"/>
<path d="M307 722 c-18 -4 -22 -29 -11 -69 8 -28 16 -29 41 -5 18 16 19 19 4
47 -10 19 -22 29 -34 27z"/>
<path d="M2230 711 c0 -6 6 -13 13 -18 14 -9 77 -32 77 -28 0 4 -79 55 -85 55
-3 0 -5 -4 -5 -9z"/>
<path d="M502 694 c10 -10 20 -15 24 -12 3 4 -5 12 -18 18 -22 12 -22 12 -6
-6z"/>
<path d="M2210 686 c0 -2 12 -12 28 -21 l27 -18 -19 21 c-17 20 -36 29 -36 18z"/>
<path d="M340 629 c-22 -18 -22 -19 -3 -10 12 6 25 16 28 21 9 15 3 12 -25
-11z"/>
<path d="M2260 636 c0 -2 7 -7 16 -10 8 -3 12 -2 9 4 -6 10 -25 14 -25 6z"/>
<path d="M2390 590 c8 -5 22 -9 30 -9 10 0 8 3 -5 9 -27 12 -43 12 -25 0z"/>
<path d="M1367 509 c7 -7 15 -10 18 -7 3 3 -2 9 -12 12 -14 6 -15 5 -6 -5z"/>
<path d="M2428 403 c6 -2 18 -2 25 0 6 3 1 5 -13 5 -14 0 -19 -2 -12 -5z"/>
<path d="M2488 393 c7 -3 16 -2 19 1 4 3 -2 6 -13 5 -11 0 -14 -3 -6 -6z"/>
<path d="M1767 348 c-76 -7 -289 -71 -304 -90 -6 -7 -13 -25 -17 -40 -7 -32 9
-156 25 -192 l12 -26 134 0 c130 0 134 1 128 20 -5 16 -2 20 14 20 12 0 54 -9
93 -20 67 -18 103 -20 475 -20 l403 0 0 136 0 135 -37 16 c-28 13 -63 16 -135
15 -53 -1 -116 3 -140 9 -48 12 -164 21 -134 10 14 -5 16 -10 8 -15 -7 -4 -10
-11 -7 -16 3 -5 -3 -13 -12 -19 -17 -10 -17 -10 0 -11 10 0 15 -5 12 -11 -8
-12 -83 -6 -111 9 -10 5 -36 28 -56 51 -20 23 -40 41 -45 42 -53 4 -253 2
-306 -3z m558 -48 c-3 -5 -12 -10 -18 -10 -7 0 -6 4 3 10 19 12 23 12 15 0z
m115 -34 c-25 -7 -66 -15 -90 -19 -37 -5 -41 -4 -25 6 25 14 79 25 125 25 34
0 34 0 -10 -12z m-122 -43 c-10 -2 -28 -2 -40 0 -13 2 -5 4 17 4 22 1 32 -1
23 -4z"/>
<path d="M718 243 c7 -3 16 -2 19 1 4 3 -2 6 -13 5 -11 0 -14 -3 -6 -6z"/>
<path d="M758 243 c7 -3 16 -2 19 1 4 3 -2 6 -13 5 -11 0 -14 -3 -6 -6z"/>
</g>
</svg>
