<?xml version="1.0" standalone="no"?>
<!DOCTYPE svg PUBLIC "-//W3C//DTD SVG 20010904//EN"
 "http://www.w3.org/TR/2001/REC-SVG-20010904/DTD/svg10.dtd">
<svg version="1.0" xmlns="http://www.w3.org/2000/svg"
 width="225.000000pt" height="225.000000pt" viewBox="0 0 225.000000 225.000000"
 preserveAspectRatio="xMidYMid meet">

<g transform="translate(0.000000,225.000000) scale(0.100000,-0.100000)"
fill="#000000" stroke="none">
<path d="M1055 1630 c-16 -5 -46 -27 -65 -49 l-35 -40 -55 20 c-81 28 -107 23
-146 -31 -19 -25 -34 -53 -34 -62 0 -12 -8 -18 -25 -18 -14 0 -25 -4 -25 -9 0
-5 -15 -12 -34 -15 -21 -4 -41 -17 -51 -32 -9 -14 -19 -23 -22 -20 -3 3 -19
-11 -35 -32 l-30 -37 30 -3 31 -3 -17 -46 c-9 -25 -30 -60 -47 -76 -28 -28
-104 -145 -118 -180 -3 -9 -14 -17 -24 -18 -16 0 -16 -1 2 -9 19 -8 19 -9 1
-9 -15 -1 -17 -6 -12 -32 4 -19 1 -38 -6 -46 -18 -22 -18 -52 1 -45 14 5 14 3
0 -14 -12 -14 -15 -35 -14 -76 2 -40 -1 -61 -11 -69 -14 -12 -15 -11 -18 56
-1 11 4 23 9 28 6 4 5 10 -4 16 -9 6 -10 14 -4 27 5 11 6 33 2 49 -8 38 -9 29
-18 -152 -3 -77 -3 -139 2 -136 4 2 7 22 7 44 0 21 5 39 11 39 6 0 8 -8 5 -17
-3 -10 -7 -33 -8 -51 -1 -18 -8 -32 -15 -32 -8 0 -13 -13 -13 -32 0 -18 4 -28
8 -22 8 12 54 3 52 -11 -1 -5 3 -11 8 -13 6 -2 8 6 5 19 -4 14 -2 20 5 16 18
-12 42 4 42 28 0 13 5 45 11 72 l11 48 184 -3 184 -3 0 26 c0 24 13 34 24 17
10 -17 14 -102 5 -108 -5 -3 -9 1 -9 8 0 8 -4 6 -11 -4 -13 -23 16 -88 40 -89
112 -7 110 -8 108 74 l-2 72 73 3 c43 2 72 -1 72 -7 0 -6 12 2 27 17 23 23 27
34 27 91 0 41 -5 66 -12 69 -7 2 -12 10 -12 18 0 22 35 16 49 -9 7 -12 22 -27
34 -32 52 -23 84 -115 67 -189 -6 -26 -5 -51 3 -75 11 -32 16 -36 51 -39 44
-4 90 30 83 60 -3 10 -1 18 4 18 5 0 9 7 9 15 0 8 -4 15 -9 15 -12 0 -31 88
-24 109 4 9 15 24 25 35 15 14 19 30 17 70 -2 35 6 80 27 146 17 52 29 111 28
130 -1 19 -3 57 -3 83 -1 33 -5 46 -12 41 -8 -4 -9 0 -4 15 3 11 3 30 0 42 -7
20 -8 19 -25 -9 -16 -27 -51 -56 -90 -77 -8 -4 -1 6 15 22 17 16 46 50 65 76
34 46 68 66 90 52 5 -3 32 -39 59 -78 63 -92 117 -147 152 -154 39 -8 76 -72
84 -149 l7 -61 -33 0 c-96 0 -109 -3 -109 -22 0 -18 2 -19 28 -5 15 7 48 14
74 14 46 0 47 -1 68 -47 49 -107 58 -150 28 -126 -17 14 -58 -2 -58 -21 0 -21
30 -35 62 -29 31 6 42 -13 54 -87 6 -36 4 -40 -20 -51 -27 -13 -37 -35 -11
-25 9 3 18 -1 21 -9 4 -8 10 -15 16 -15 5 0 6 4 3 10 -3 5 -1 10 5 10 7 0 9
-8 5 -22 -4 -13 -8 -27 -9 -33 -1 -10 56 -11 189 -6 47 2 54 5 35 11 -14 4
-21 8 -16 9 11 1 -59 49 -76 52 -41 5 -49 -1 -46 -33 2 -17 -2 -33 -9 -35 -15
-5 -22 26 -12 54 5 14 4 23 -4 27 -7 2 9 5 36 5 26 1 47 5 47 11 0 5 -8 24
-19 43 -19 34 -26 72 -36 208 -3 41 -13 104 -21 140 -8 35 -15 75 -15 89 0 23
0 24 -13 7 -14 -18 -14 -17 -21 2 -3 12 -11 21 -16 21 -5 0 -9 14 -9 31 0 39
-34 115 -56 123 -11 4 -14 13 -10 29 9 39 -109 218 -154 232 -10 3 -29 27 -43
53 -39 72 -68 99 -105 99 -34 0 -40 -14 -20 -46 13 -22 -3 -51 -28 -51 -13 0
-36 40 -38 65 -1 6 -12 11 -26 13 -14 2 -30 10 -37 18 -9 12 -16 13 -32 4 -12
-6 -21 -8 -21 -4 0 3 -6 2 -12 -4 -7 -6 -30 -13 -50 -17 -30 -6 -38 -12 -38
-29 -1 -17 -4 -16 -18 11 -10 18 -26 39 -37 47 -26 18 -112 27 -150 16z m-193
-97 c31 -34 24 -68 -16 -75 -26 -5 -34 7 -18 28 4 5 -1 0 -12 -11 -10 -11 -23
-27 -30 -35 -27 -35 -76 -47 -76 -19 0 6 5 7 10 4 6 -3 10 -1 10 5 0 13 67
112 83 122 18 11 21 10 49 -19z m630 -43 c4 0 8 -4 8 -10 0 -12 -47 -25 -75
-21 -51 7 -74 68 -32 86 19 9 27 6 57 -22 19 -18 38 -33 42 -33z m-405 8 c-3
-8 -6 -5 -6 6 -1 11 2 17 5 13 3 -3 4 -12 1 -19z m221 -39 c-3 -8 -7 -3 -11
10 -4 17 -3 21 5 13 5 -5 8 -16 6 -23z m-381 -1 c-3 -8 -6 -5 -6 6 -1 11 2 17
5 13 3 -3 4 -12 1 -19z m417 -34 c8 -20 8 -24 -1 -24 -17 0 -35 19 -29 29 10
16 23 14 30 -5z m-432 -76 c-6 -6 -16 -3 -26 7 -14 14 -14 20 -4 33 31 40 33
40 36 5 2 -20 -1 -40 -6 -45z m385 60 c-3 -8 -6 -5 -6 6 -1 11 2 17 5 13 3 -3
4 -12 1 -19z m-509 -93 c2 -2 -4 -34 -13 -72 -10 -37 -17 -95 -16 -128 1 -58
27 -170 50 -213 13 -25 15 -119 2 -126 -5 -3 -7 -15 -4 -26 3 -12 0 -20 -6
-20 -9 0 -10 21 -6 73 4 42 3 82 -3 97 l-11 25 -1 -30 c-1 -48 -38 -68 -132
-70 -86 -3 -128 -21 -128 -56 0 -17 -5 -20 -25 -17 -14 3 -25 2 -25 -1 0 -3
-9 -12 -20 -19 -18 -11 -19 -10 -10 14 6 14 14 33 20 43 5 10 14 57 20 106 12
95 38 160 69 170 34 11 98 92 141 181 40 81 43 85 68 79 15 -4 29 -8 30 -10z
m869 -21 c-3 -3 -12 -4 -19 -1 -8 3 -5 6 6 6 11 1 17 -2 13 -5z m-200 -116
c-3 -8 -6 -5 -6 6 -1 11 2 17 5 13 3 -3 4 -12 1 -19z m583 -615 c0 -29 -26
-29 -44 0 -8 13 -8 20 3 26 22 14 41 2 41 -26z m-63 5 c-3 -8 -6 -5 -6 6 -1
11 2 17 5 13 3 -3 4 -12 1 -19z m-1150 -14 c-3 -3 -12 -4 -19 -1 -8 3 -5 6 6
6 11 1 17 -2 13 -5z m-527 -18 c0 -3 -4 -8 -10 -11 -5 -3 -10 -1 -10 4 0 6 5
11 10 11 6 0 10 -2 10 -4z m1792 -71 c3 3 5 -2 5 -10 0 -8 -9 -15 -19 -15 -10
0 -18 6 -18 14 0 8 -3 23 -6 33 -5 15 -2 14 14 -4 11 -12 22 -20 24 -18z"/>
<path d="M1490 1632 c0 -12 19 -26 26 -19 2 2 -2 10 -11 17 -9 8 -15 8 -15 2z"/>
<path d="M1500 1580 c-9 -6 -10 -10 -3 -10 6 0 15 5 18 10 8 12 4 12 -15 0z"/>
<path d="M477 1285 c3 -8 9 -12 14 -9 12 7 11 11 -5 17 -10 4 -13 1 -9 -8z"/>
<path d="M1930 1151 c0 -6 4 -13 10 -16 6 -3 7 1 4 9 -7 18 -14 21 -14 7z"/>
<path d="M1960 1068 c0 -9 5 -20 10 -23 13 -8 13 5 0 25 -8 13 -10 13 -10 -2z"/>
<path d="M355 1040 c3 -5 8 -10 11 -10 2 0 4 5 4 10 0 6 -5 10 -11 10 -5 0 -7
-4 -4 -10z"/>
<path d="M35 926 c-33 -18 -35 -26 -35 -146 1 -107 2 -117 25 -142 21 -25 31
-28 85 -28 45 0 65 5 79 19 10 10 27 23 37 29 27 15 34 104 13 162 -14 36 -23
46 -45 50 -31 6 -99 37 -124 56 -11 9 -20 9 -35 0z"/>
<path d="M2030 893 c0 -10 24 -13 88 -13 55 0 92 -4 100 -12 16 -16 16 -170 0
-186 -7 -7 -20 -12 -30 -12 -10 0 -18 -4 -18 -10 0 -5 18 -10 40 -10 l40 0 0
131 0 131 -110 -4 c-80 -2 -110 -6 -110 -15z"/>
<path d="M1481 684 c0 -11 3 -14 6 -6 3 7 2 16 -1 19 -3 4 -6 -2 -5 -13z"/>
<path d="M1665 680 c-3 -5 -1 -10 4 -10 6 0 11 5 11 10 0 6 -2 10 -4 10 -3 0
-8 -4 -11 -10z"/>
<path d="M272 438 c-9 -33 -1 -48 26 -48 13 0 16 37 6 64 -10 25 -23 19 -32
-16z"/>
<path d="M1780 449 l-25 -21 25 7 c54 15 78 16 84 6 10 -16 36 -14 36 3 0 32
-83 35 -120 5z"/>
<path d="M350 425 c0 -36 12 -43 40 -25 13 8 11 14 -12 35 l-28 26 0 -36z"/>
<path d="M407 450 c12 -5 26 -17 32 -27 7 -13 13 -15 18 -7 5 7 19 14 33 17
19 3 15 5 -12 6 -21 0 -38 5 -38 9 0 4 -12 8 -27 9 -26 2 -26 1 -6 -7z"/>
<path d="M183 430 c-35 -14 -29 -34 8 -26 17 3 35 6 40 6 5 0 6 7 3 15 -7 17
-19 18 -51 5z"/>
<path d="M528 413 c7 -3 16 -2 19 1 4 3 -2 6 -13 5 -11 0 -14 -3 -6 -6z"/>
<path d="M1308 413 c6 -2 18 -2 25 0 6 3 1 5 -13 5 -14 0 -19 -2 -12 -5z"/>
<path d="M1328 393 c6 -2 18 -2 25 0 6 3 1 5 -13 5 -14 0 -19 -2 -12 -5z"/>
<path d="M2170 30 c-19 -5 -57 -13 -85 -18 -45 -9 -40 -10 58 -11 101 -1 107
0 107 19 0 22 -19 24 -80 10z"/>
</g>
</svg>
