<?xml version="1.0" standalone="no"?>
<!DOCTYPE svg PUBLIC "-//W3C//DTD SVG 20010904//EN"
 "http://www.w3.org/TR/2001/REC-SVG-20010904/DTD/svg10.dtd">
<svg version="1.0" xmlns="http://www.w3.org/2000/svg"
 width="317.000000pt" height="159.000000pt" viewBox="0 0 317.000000 159.000000"
 preserveAspectRatio="xMidYMid meet">

<g transform="translate(0.000000,159.000000) scale(0.100000,-0.100000)"
fill="#000000" stroke="none">
<path d="M1973 1505 c1 -60 6 -85 14 -86 7 -1 19 -2 26 -3 8 -1 14 19 17 54
l5 55 55 5 c51 5 55 7 58 33 l3 27 -90 0 -90 0 2 -85z"/>
<path d="M2180 1564 c-6 -14 -10 -36 -10 -50 0 -15 -6 -24 -16 -24 -11 0 -14
-8 -12 -32 3 -29 6 -33 33 -33 17 0 31 4 33 8 1 4 2 41 2 82 0 77 -12 97 -30
49z"/>
<path d="M2250 1545 c0 -25 3 -44 8 -44 4 1 14 1 22 0 13 -1 13 -3 0 -10 -8
-6 -18 -7 -23 -4 -5 3 -7 -8 -5 -23 3 -25 8 -29 38 -30 19 -1 58 4 85 12 l50
14 -50 -1 c-78 -2 -75 -5 -75 66 0 63 -1 65 -25 65 -23 0 -25 -4 -25 -45z"/>
<path d="M2360 1534 c-13 -34 -13 -34 9 -34 25 0 34 14 26 40 -9 27 -24 25
-35 -6z"/>
<path d="M2200 1408 c-19 -6 -79 -13 -133 -15 l-98 -4 3 -31 c3 -29 7 -32 58
-44 30 -7 79 -11 108 -10 l53 3 -6 -28 c-5 -22 -2 -30 15 -39 11 -6 25 -22 30
-36 12 -29 20 -30 49 -3 22 21 58 19 45 -2 -4 -8 -3 -9 4 -5 7 4 12 13 12 20
0 7 16 27 35 45 26 23 35 40 35 64 0 17 3 42 6 54 5 19 1 22 -53 26 -32 3 -74
8 -93 11 -19 2 -51 0 -70 -6z"/>
<path d="M2430 1263 c0 -35 9 -48 38 -55 19 -5 22 -2 22 22 0 44 -10 60 -36
60 -20 0 -24 -5 -24 -27z"/>
<path d="M2046 1213 c-3 -4 -52 -6 -109 -6 -92 1 -100 0 -77 -13 16 -9 40 -11
68 -8 39 6 42 5 42 -18 0 -14 11 -35 25 -48 l25 -23 -20 -34 c-25 -43 -25 -89
0 -144 11 -24 20 -58 20 -75 0 -17 7 -37 15 -44 13 -11 13 -14 -2 -27 -10 -8
-12 -12 -5 -8 6 3 12 1 12 -5 0 -7 -9 -14 -20 -17 -30 -8 -21 -39 10 -36 24 3
24 2 5 -9 -11 -6 -27 -20 -35 -31 -15 -17 -16 -15 -15 30 0 30 6 53 15 61 13
11 11 12 -10 10 -23 -3 -25 -7 -24 -55 1 -29 -2 -53 -6 -53 -3 0 -7 12 -7 28
-1 84 -13 265 -17 269 -10 10 -16 -67 -19 -248 -2 -102 -8 -192 -12 -199 -4
-7 -2 -16 5 -20 8 -5 7 -9 -6 -14 -14 -5 -15 -9 -6 -15 9 -5 6 -15 -13 -35
-24 -26 -27 -27 -44 -12 -16 15 -20 13 -51 -31 l-34 -46 22 -38 c19 -33 20
-42 10 -59 -7 -11 -16 -20 -21 -20 -4 0 -12 -11 -17 -25 -11 -28 -41 -33 -60
-10 -6 8 -21 17 -32 21 -33 10 -67 45 -61 62 4 10 2 13 -5 8 -7 -4 -12 -1 -12
8 0 9 5 16 12 16 6 0 9 2 6 5 -9 10 -37 -6 -40 -23 -4 -18 4 -32 35 -60 9 -9
17 -21 17 -27 0 -5 -4 -4 -9 3 -5 9 -10 1 -14 -25 -6 -32 -2 -45 24 -81 21
-29 30 -51 26 -68 l-4 -24 228 0 c226 0 228 0 240 22 7 13 55 68 108 123 72
76 109 124 147 195 l52 95 38 -1 c95 -3 105 -5 99 -13 -10 -18 16 -23 29 -6 7
9 21 16 32 13 15 -2 20 -13 22 -51 4 -58 -10 -78 -47 -71 -18 4 -32 0 -40 -10
-19 -23 -4 -36 44 -36 29 0 45 -5 49 -15 4 -11 21 -15 68 -14 47 1 57 3 38 9
-22 7 -20 8 15 10 22 1 57 1 78 0 38 -2 38 -1 20 19 -9 12 -24 21 -31 21 -8 0
-28 10 -45 22 -20 14 -48 23 -77 24 -38 2 -46 5 -48 24 -5 30 11 43 47 42 17
0 33 4 36 9 8 12 115 12 186 0 30 -5 98 -12 152 -14 l97 -5 0 40 0 40 -37 -6
c-84 -13 -182 -18 -353 -18 -30 0 -80 0 -110 -1 -30 0 -92 1 -136 3 -45 1 -86
0 -93 -4 -21 -13 -11 6 36 67 26 34 49 64 50 66 1 2 71 -2 155 -9 84 -6 196
-13 248 -16 52 -3 99 -9 105 -15 5 -5 19 -9 31 -9 33 0 54 -10 54 -26 0 -8 10
-14 25 -14 l25 0 -1 103 c-1 81 -3 95 -10 70 -9 -32 -24 -43 -31 -24 -3 9 -32
5 -127 -20 -19 -4 -38 -6 -43 -3 -4 3 -9 38 -9 77 -1 54 -3 65 -9 42 -4 -16
-8 -47 -9 -67 l-1 -37 -112 3 c-62 2 -148 4 -190 5 -90 1 -102 15 -68 78 29
55 26 105 -12 169 -18 30 -35 54 -38 54 -3 0 -4 -28 -2 -62 2 -42 -1 -69 -11
-82 -13 -17 -15 -16 -36 19 -24 41 -43 41 -21 0 21 -40 5 -40 -20 0 -12 19
-32 40 -43 47 -20 10 -21 10 -8 -6 8 -9 11 -19 8 -23 -8 -7 -46 75 -47 100 0
12 -8 17 -30 17 -16 0 -30 5 -30 11 0 5 5 7 10 4 6 -3 17 1 26 9 12 12 13 20
4 36 -14 27 -22 120 -9 120 5 0 8 18 7 40 -1 31 -4 37 -14 29 -7 -6 -10 -17
-8 -24 10 -25 -8 -40 -22 -20 -13 18 -14 18 -35 -1 -12 -10 -27 -30 -35 -44
-28 -53 -29 -53 -62 -32 -21 12 -28 22 -22 28 7 7 -1 9 -25 8 -39 -3 -43 6
-20 46 18 32 19 44 1 37 -10 -4 -13 -1 -9 9 6 15 1 18 -11 7z m34 -128 c0 -8
-8 -11 -20 -8 -30 8 -33 21 -5 21 14 0 25 -6 25 -13z m33 -47 c-9 -15 -23 -8
-23 12 0 17 2 19 14 8 8 -7 12 -16 9 -20z m-63 -383 c-8 -8 -31 -21 -51 -29
-28 -12 -36 -12 -36 -2 0 7 7 12 16 9 9 -2 30 5 46 16 36 24 44 26 25 6z m-59
-67 c-30 -19 -32 -23 -15 -29 17 -7 17 -8 2 -8 -10 -1 -18 -5 -18 -11 0 -5 -7
-10 -15 -10 -21 0 -19 10 10 45 14 17 36 32 48 32 18 2 16 -1 -12 -19z"/>
<path d="M2090 1206 c0 -19 32 -45 37 -30 2 7 13 10 24 7 21 -6 24 15 4 29
-18 13 -65 9 -65 -6z"/>
<path d="M43 1123 c-24 -2 -43 -8 -43 -12 0 -9 508 -22 794 -20 308 2 143 16
-284 23 -212 4 -394 9 -405 10 -11 2 -39 1 -62 -1z"/>
<path d="M2820 1014 c0 -36 -5 -84 -11 -107 -8 -34 -7 -50 6 -79 l15 -38 85 0
c50 0 85 4 85 10 0 6 -9 10 -20 10 -11 0 -20 7 -20 15 0 9 -7 15 -16 13 -12
-2 -21 12 -34 49 -9 29 -15 55 -12 58 3 3 -2 5 -10 5 -10 0 -19 14 -24 38 -4
20 -8 39 -10 42 -1 3 -5 15 -9 28 -14 42 -25 22 -25 -44z"/>
<path d="M3143 913 c-17 -3 -23 -11 -23 -29 0 -19 -8 -28 -32 -39 -32 -13 -32
-13 -8 -18 21 -4 20 -5 -7 -6 -18 0 -33 -6 -33 -11 0 -7 26 -10 65 -9 l65 2 0
58 c0 33 -1 58 -2 58 -2 -1 -13 -4 -25 -6z m8 -56 c-1 -12 -15 -9 -19 4 -3 6
1 10 8 8 6 -3 11 -8 11 -12z"/>
<path d="M2417 875 c-17 -12 -16 -13 7 -11 25 1 34 10 18 20 -4 2 -15 -2 -25
-9z"/>
<path d="M1427 553 c-13 -13 -7 -23 14 -23 14 0 19 -5 16 -14 -3 -8 1 -17 9
-20 8 -3 14 -12 14 -21 0 -14 -3 -14 -25 2 -13 10 -22 24 -20 31 3 7 1 10 -4
7 -5 -3 -13 -1 -16 5 -5 8 -11 7 -21 -1 -16 -13 -44 -67 -44 -84 0 -37 -91
-105 -142 -105 -10 0 -21 -7 -24 -15 -4 -8 -13 -15 -21 -15 -8 0 -12 -4 -9 -9
3 -5 -1 -12 -10 -15 -23 -9 -26 -8 -18 7 4 6 -5 0 -20 -14 -18 -18 -34 -25
-49 -22 -15 3 -18 2 -9 -4 9 -7 6 -13 -14 -22 -27 -12 -59 -38 -92 -74 -9 -9
-20 -17 -25 -17 -5 0 -21 -9 -37 -20 -39 -28 -83 -12 -98 36 -13 44 -4 77 31
104 23 18 27 29 27 63 -1 23 2 54 5 70 6 23 4 27 -14 27 -12 0 -21 6 -21 15 0
8 -5 15 -11 15 -6 0 -9 -7 -5 -15 4 -10 -1 -15 -15 -15 -17 0 -20 -5 -17 -32
2 -28 -1 -34 -19 -36 -32 -5 -29 -23 3 -20 22 2 27 -2 31 -22 6 -36 -5 -70
-22 -70 -8 0 -15 -4 -15 -10 0 -5 -9 -10 -20 -10 -11 0 -20 5 -20 11 0 5 -4 8
-9 5 -4 -3 -6 5 -4 17 8 40 -43 69 -92 53 -11 -4 -23 -6 -27 -4 -11 5 -48 -49
-48 -70 0 -12 12 -29 28 -40 31 -22 122 -36 122 -18 0 6 4 4 9 -4 12 -18 7
-26 -19 -33 -11 -3 -18 -1 -14 4 8 14 -18 10 -46 -6 -14 -8 -38 -15 -55 -15
-16 0 -40 -3 -52 -6 -42 -11 -24 -23 32 -21 40 2 55 -1 55 -11 0 -8 -7 -11
-17 -8 -30 8 -77 9 -95 1 -24 -10 -23 -42 1 -55 28 -15 406 -12 451 3 l35 12
-3 56 c-4 53 -2 56 32 83 43 32 217 132 249 142 43 13 97 60 133 117 21 31 41
57 45 57 4 0 22 -19 41 -42 18 -24 41 -52 50 -62 10 -11 24 -32 30 -48 15 -33
28 -36 35 -8 3 11 12 20 19 20 18 0 17 8 -7 45 -10 17 -22 37 -26 45 -3 8 -19
31 -35 51 -15 20 -28 41 -28 46 0 6 -11 15 -25 21 -30 14 -30 14 -38 5z m93
-115 c10 -13 16 -26 13 -31 -4 -7 -43 35 -43 47 0 12 12 5 30 -16z m-720 -98
c0 -5 -4 -10 -10 -10 -5 0 -10 5 -10 10 0 6 5 10 10 10 6 0 10 -4 10 -10z
m-177 -67 c-7 -2 -19 -2 -25 0 -7 3 -2 5 12 5 14 0 19 -2 13 -5z m39 -72 c10
6 19 6 22 0 7 -10 -18 -23 -52 -27 -27 -3 -41 25 -34 64 5 24 5 24 26 -11 17
-28 25 -33 38 -26z m39 -24 c-10 -9 -11 -8 -5 6 3 10 9 15 12 12 3 -3 0 -11
-7 -18z m-84 -80 c0 -8 -6 -14 -14 -14 -17 0 -17 14 0 20 6 3 12 6 13 6 0 1 1
-5 1 -12z"/>
<path d="M940 411 c-35 -7 -35 -7 -8 -12 16 -4 35 -1 45 7 19 14 16 15 -37 5z"/>
<path d="M586 382 c15 -26 25 -32 51 -32 18 0 33 3 33 8 -1 15 -26 37 -45 38
-11 1 -29 5 -39 9 -19 8 -19 8 0 -23z"/>
<path d="M522 385 c-8 -10 -9 -15 -2 -15 6 0 9 -3 7 -7 -3 -5 1 -14 9 -21 11
-10 14 -10 14 1 0 7 -5 18 -12 25 -9 9 -9 12 0 12 7 0 12 5 12 10 0 14 -13 12
-28 -5z"/>
<path d="M13 373 c9 -2 23 -2 30 0 6 3 -1 5 -18 5 -17 0 -22 -2 -12 -5z"/>
<path d="M863 353 c-33 -6 -28 -19 9 -27 25 -5 37 -2 52 14 l20 20 -29 -1
c-17 -1 -40 -4 -52 -6z"/>
<path d="M302 289 c-18 -4 -81 -10 -140 -13 -128 -8 -162 -14 -162 -28 0 -7
21 -9 63 -4 34 4 109 11 167 17 58 6 107 12 109 14 12 12 -9 20 -37 14z"/>
<path d="M3018 289 c-16 -6 -28 -15 -28 -20 0 -5 -7 -9 -16 -9 -8 0 -12 -4 -9
-10 3 -5 15 -10 26 -10 10 0 19 -7 19 -15 0 -11 11 -15 43 -15 31 0 38 3 27
10 -11 7 0 10 38 10 51 0 52 0 52 30 0 23 -5 30 -19 30 -10 0 -38 2 -62 5 -24
2 -56 0 -71 -6z"/>
<path d="M701 254 c0 -11 3 -14 6 -6 3 7 2 16 -1 19 -3 4 -6 -2 -5 -13z"/>
<path d="M1690 251 c0 -5 -3 -17 -7 -26 -5 -16 -4 -16 15 1 12 9 19 21 16 26
-7 11 -24 10 -24 -1z"/>
<path d="M470 185 c-7 -9 -8 -15 -2 -15 5 0 12 7 16 15 3 8 4 15 2 15 -2 0 -9
-7 -16 -15z"/>
</g>
</svg>
